<svg xmlns="http://www.w3.org/2000/svg" viewBox="0 0 32 32">
  <path d="M9.893 13.4c-.24-.213-.613-.307-1.12-.307H8l.027 3.253.053 3.267.747-.027c.547 0 .84-.093 1.107-.347.32-.32.347-.48.347-2.933 0-2.547-.027-2.613-.387-2.907zM0 6.587v18.827h32V6.587zM11.413 20.4c-.587.773-1.413 1.027-3.373 1.027H6.28V11.374h1.867c2.227 0 2.88.24 3.467 1.2.36.573.387.8.427 3.427.067 2.973-.027 3.64-.627 4.4zm6.787-7.293h-3.293v2.36h2.027v1.707l-.96.053-1 .04v2.36l1.627.04 1.6.053v1.707h-2.133c-2.04 0-2.133-.013-2.493-.4l-.4-.373v-4.213c0-4.027.013-4.24.333-4.64.307-.413.333-.413 2.507-.413h2.187zm6.24 7.266c-.227.573-.853 1.053-1.333 1.053-.24 0-.6-.2-.893-.52-.427-.427-.6-.84-1.093-2.773l-1.2-4.52-.6-2.227h1.013c.533 0 1 .027 1 .067 0 .08 1.547 6.053 1.68 6.44.053.2.427-.933.973-3.067l.88-3.36.987-.053c.533-.027.973 0 .973.053 0 .187-2.227 8.507-2.387 8.907z"/>
</svg>
